<svg xmlns="http://www.w3.org/2000/svg" viewBox="0 0 24 24" fill="none">
  <path d="M6.25 5.8 18.4 2.75a1 1 0 0 1 1.24.97v16.56a1 1 0 0 1-1.24.97L6.25 18.2a1 1 0 0 1-.75-.97V6.77a1 1 0 0 1 .75-.97Z" stroke="#111827" stroke-width="3.4" stroke-linejoin="round"/>
  <path d="M6.25 5.8 18.4 2.75a1 1 0 0 1 1.24.97v16.56a1 1 0 0 1-1.24.97L6.25 18.2a1 1 0 0 1-.75-.97V6.77a1 1 0 0 1 .75-.97Z" stroke="#F9FAFB" stroke-width="2.1" stroke-linejoin="round"/>
  <path d="M7.2 8.45 17.2 5.9v5.35L7.2 8.45ZM7.2 15.55l10-2.8v5.35l-10-2.55Z" fill="#F9FAFB" stroke="#111827" stroke-width="0.55" stroke-linejoin="round"/>
</svg>
